# 3ds Max Wavefront OBJ Exporter v0.97b - (c)2007 guruware
# File Created: 30.10.2016 23:37:20

mtllib Church.mtl

#
# object Line001
#

v  6.9215 59.2443 4.3948
v  6.9215 62.4923 4.3948
v  6.9215 62.4923 5.3948
v  6.9215 59.2443 5.3948
v  8.6520 62.4923 4.3948
v  8.6520 62.4923 5.3948
v  8.6520 63.4508 4.3948
v  8.6520 63.4508 5.3948
v  6.8682 63.4508 4.3948
v  6.8682 63.4508 5.3948
v  6.8682 65.4209 4.3948
v  6.8682 65.4209 5.3948
v  5.8033 65.4209 4.3948
v  5.8033 65.4209 5.3948
v  5.8033 63.4508 4.3948
v  5.8033 63.4508 5.3948
v  4.1527 63.4508 4.3948
v  4.1527 63.4508 5.3948
v  4.1527 62.5190 4.3948
v  4.1527 62.5190 5.3948
v  5.8299 62.5190 4.3948
v  5.8299 62.5190 5.3948
v  5.8299 59.2710 4.3948
v  5.8299 59.2710 5.3948
# 24 vertices

vn 1.0000 0.0000 -0.0000
vn 0.0000 -1.0000 -0.0000
vn 0.0000 1.0000 0.0000
vn -1.0000 0.0000 -0.0000
vn -0.0244 -0.9997 -0.0000
vn 0.0000 0.0000 -1.0000
vn 0.0000 -0.0000 1.0000
# 7 vertex normals

g Line001
usemtl wire_115115115
s 1
f 1//1 2//1 3//1 4//1 
s 4
f 2//2 5//2 6//2 3//2 
s 2
f 5//1 7//1 8//1 6//1 
s 4
f 7//3 9//3 10//3 8//3 
s 2
f 9//1 11//1 12//1 10//1 
s 4
f 11//3 13//3 14//3 12//3 
s 2
f 13//4 15//4 16//4 14//4 
s 4
f 15//3 17//3 18//3 16//3 
s 2
f 17//4 19//4 20//4 18//4 
s 4
f 19//2 21//2 22//2 20//2 
s 2
f 21//4 23//4 24//4 22//4 
s 4
f 23//5 1//5 4//5 24//5 
s 16
f 23//6 21//6 2//6 1//6 
f 17//6 15//6 21//6 19//6 
f 11//6 9//6 15//6 13//6 
f 9//6 2//6 21//6 15//6 
f 7//6 5//6 2//6 9//6 
f 24//7 4//7 3//7 22//7 
f 18//7 20//7 22//7 16//7 
f 12//7 14//7 16//7 10//7 
f 10//7 16//7 22//7 3//7 
f 8//7 10//7 3//7 6//7 
# 22 polygons

#
# object Box002
#

v  -5.4412 -0.0845 -6.6415
v  -5.4412 -0.0845 -42.4257
v  18.3329 -0.0845 -42.4257
v  18.3329 -0.0845 -6.6415
v  6.3490 36.5626 -6.6415
v  6.5427 36.5626 -6.6415
v  6.5427 36.5626 -42.4257
v  6.3490 36.5626 -42.4257
v  18.3329 15.6330 -6.6415
v  -5.4412 15.6330 -6.6415
v  18.3329 26.0978 -6.6415
v  -5.4412 26.0978 -6.6415
v  18.3329 15.6330 -42.4257
v  18.3329 26.0978 -42.4257
v  -5.4412 15.6330 -42.4257
v  -5.4412 26.0978 -42.4257
# 16 vertices

vn 0.0000 -1.0000 -0.0000
vn 0.0000 1.0000 -0.0000
vn 0.0000 0.0000 1.0000
vn 1.0000 0.0000 -0.0000
vn 0.9121 0.4100 -0.0000
vn 0.6638 0.7479 -0.0000
vn 0.0000 0.0000 -1.0000
vn -1.0000 0.0000 -0.0000
vn -0.9121 0.4100 -0.0000
vn -0.6638 0.7479 -0.0000
# 10 vertex normals

vt 1.0000 0.0000 0.0000
vt 1.0000 1.0000 0.0000
vt 0.0000 1.0000 0.0000
vt 0.0000 0.0000 0.0000
vt 1.0000 0.3333 0.0000
vt 0.0000 0.3333 0.0000
vt 1.0000 0.6667 0.0000
vt 0.0000 0.6667 0.0000
# 8 texture coords

g Box002
usemtl wire_115115115
s 2
f 25/1/8 26/2/8 27/3/8 28/4/8 
s 4
f 29/4/9 30/1/9 31/2/9 32/3/9 
s 8
f 25/4/10 28/1/10 33/5/10 34/6/10 
f 34/6/10 33/5/10 35/7/10 36/8/10 
f 36/8/10 35/7/10 30/2/10 29/3/10 
s 16
f 28/4/11 27/1/11 37/5/11 33/6/11 
f 33/6/11 37/5/11 38/7/12 35/8/12 
f 35/8/12 38/7/12 31/2/13 30/3/13 
s 32
f 27/4/14 26/1/14 39/5/14 37/6/14 
f 37/6/14 39/5/14 40/7/14 38/8/14 
f 38/8/14 40/7/14 32/2/14 31/3/14 
s 64
f 26/4/15 25/1/15 34/5/15 39/6/15 
f 39/6/15 34/5/15 36/7/16 40/8/16 
f 40/8/16 36/7/16 29/2/17 32/3/17 
# 14 polygons

#
# object Cylinder001
#

v  18.6635 0.0000 -7.5594
v  18.6635 0.0000 17.3630
v  -6.0555 0.0000 17.3630
v  -6.0555 0.0000 -7.5594
v  6.7997 59.2830 4.4020
v  5.8083 59.2830 4.4020
v  5.8083 59.2830 5.4016
v  6.7997 59.2830 5.4016
v  18.6635 15.4610 17.3630
v  -6.0555 15.4610 17.3630
v  10.9772 46.3830 9.6135
v  1.6308 46.3830 9.6135
v  -6.0555 34.9194 17.3630
v  18.6635 34.9194 17.3630
v  18.6635 15.4610 -7.5594
v  18.6635 34.9194 -7.5594
v  10.9772 46.3830 0.1901
v  -6.0555 15.4610 -7.5594
v  -6.0555 34.9194 -7.5594
v  1.6308 46.3830 0.1901
v  10.9772 53.7830 9.6135
v  1.6308 53.7830 9.6135
v  10.9772 53.7830 0.1901
v  1.6308 53.7830 0.1901
v  8.3687 31.4475 17.3630
v  8.2558 30.8072 17.3630
v  7.9307 30.2441 17.3630
v  8.2558 32.0879 17.3630
v  7.9307 32.6510 17.3630
v  7.4326 33.0689 17.3630
v  6.8216 33.2913 17.3630
v  6.1714 33.2913 17.3630
v  5.5604 33.0689 17.3630
v  5.0623 32.6510 17.3630
v  7.4326 29.8262 17.3630
v  6.8216 29.6038 17.3630
v  6.1714 29.6038 17.3630
v  5.5604 29.8262 17.3630
v  5.0623 30.2441 17.3630
v  4.7372 30.8072 17.3630
v  4.6243 31.4475 17.3630
v  4.7372 32.0879 17.3630
v  8.3687 31.4475 15.7412
v  8.2558 32.0879 15.7412
v  7.9307 32.6510 15.7412
v  6.8216 29.6038 15.7412
v  7.4326 33.0689 15.7412
v  6.8216 33.2913 15.7412
v  5.5604 33.0689 15.7412
v  6.1714 33.2913 15.7412
v  5.0623 32.6510 15.7412
v  4.7372 32.0879 15.7412
v  4.7372 30.8072 15.7412
v  4.6243 31.4475 15.7412
v  5.0623 30.2441 15.7412
v  5.5604 29.8262 15.7412
v  6.1714 29.6038 15.7412
v  7.4326 29.8262 15.7412
v  7.9307 30.2441 15.7412
v  8.2558 30.8072 15.7412
# 60 vertices

vn 0.0000 -1.0000 0.0000
vn 0.0000 1.0000 0.0000
vn -0.0000 0.0000 1.0000
vn 0.0000 0.0000 1.0000
vn 0.0000 0.5600 0.8285
vn 0.0000 0.2361 0.9717
vn -0.0000 0.2361 0.9717
vn 1.0000 0.0000 -0.0000
vn 0.9722 0.2340 -0.0000
vn 0.8306 0.5569 -0.0000
vn 0.8306 0.5569 0.0000
vn 0.0000 -0.0000 -1.0000
vn 0.0000 0.2361 -0.9717
vn 0.0000 0.5600 -0.8285
vn -1.0000 0.0000 -0.0000
vn -0.9722 0.2340 -0.0000
vn -0.8306 0.5569 -0.0000
vn -0.8306 0.5569 0.0000
vn 0.0000 0.6080 0.7939
vn 0.7963 0.6049 0.0000
vn 0.0000 0.6080 -0.7939
vn -0.7963 0.6049 0.0000
vn 0.0000 -0.0000 1.0000
vn -0.0000 -0.0000 1.0000
vn -0.9397 -0.3420 0.0000
vn -0.7660 -0.6428 -0.0000
vn -1.0000 0.0000 0.0000
vn -0.5000 -0.8660 -0.0000
vn -0.1736 -0.9848 -0.0000
vn 0.1736 -0.9848 -0.0000
vn 0.5000 -0.8660 -0.0000
vn 0.7660 -0.6428 -0.0000
vn 0.9397 -0.3420 -0.0000
vn 1.0000 -0.0000 -0.0000
vn 0.9397 0.3420 0.0000
vn 0.7660 0.6428 0.0000
vn 0.5000 0.8660 0.0000
vn 0.1736 0.9848 0.0000
vn -0.1736 0.9848 0.0000
vn -0.5000 0.8660 0.0000
vn -0.7660 0.6428 0.0000
vn -0.9397 0.3420 0.0000
# 42 vertex normals

vt 0.0000 1.0000 0.0000
vt 0.0000 0.0000 0.0000
vt 1.0000 0.0000 0.0000
vt 1.0000 1.0000 0.0000
vt 1.0000 0.3333 0.0000
vt 0.0000 0.3333 0.0000
vt 0.0000 0.6667 0.0000
vt 1.0000 0.6667 0.0000
vt 0.5835 0.6072 0.0000
vt 0.5790 0.5962 0.0000
vt 0.5658 0.5866 0.0000
vt 0.5790 0.6182 0.0000
vt 0.5658 0.6278 0.0000
vt 0.5457 0.6350 0.0000
vt 0.5209 0.6388 0.0000
vt 0.4946 0.6388 0.0000
vt 0.4699 0.6350 0.0000
vt 0.4498 0.6278 0.0000
vt 0.5457 0.5794 0.0000
vt 0.5209 0.5756 0.0000
vt 0.4946 0.5756 0.0000
vt 0.4699 0.5794 0.0000
vt 0.4498 0.5866 0.0000
vt 0.4366 0.5962 0.0000
vt 0.4320 0.6072 0.0000
vt 0.4366 0.6182 0.0000
vt 0.5000 1.0000 -0.2500
vt 0.3290 0.9698 -0.2500
vt 0.1786 0.8830 -0.2500
vt 0.9924 0.5868 -0.2500
vt 0.0670 0.7500 -0.2500
vt 0.0076 0.5868 -0.2500
vt 0.0670 0.2500 -0.2500
vt 0.0076 0.4132 -0.2500
vt 0.1786 0.1170 -0.2500
vt 0.3290 0.0302 -0.2500
vt 0.6710 0.0302 -0.2500
vt 0.5000 0.0000 -0.2500
vt 0.8214 0.1170 -0.2500
vt 0.9330 0.2500 -0.2500
vt 0.9924 0.4132 -0.2500
vt 0.9330 0.7500 -0.2500
vt 0.8214 0.8830 -0.2500
vt 0.6710 0.9698 -0.2500
vt 0.8056 0.0000 1.0000
vt 0.8056 0.1579 1.0000
vt 0.8611 0.1579 1.0000
vt 0.8611 0.0000 1.0000
vt 0.7500 0.0000 1.0000
vt 0.7500 0.1579 1.0000
vt 0.9167 0.0000 1.0000
vt 0.9167 0.1579 1.0000
vt 0.9722 0.1579 1.0000
vt 0.9722 0.0000 1.0000
vt 0.0278 0.0000 1.0000
vt 0.0278 0.1579 1.0000
vt 0.0833 0.1579 1.0000
vt 0.0833 0.0000 1.0000
vt 1.0278 0.1579 1.0000
vt 1.0278 0.0000 1.0000
vt 0.1389 0.0000 1.0000
vt 0.1389 0.1579 1.0000
vt 0.1944 0.1579 1.0000
vt 0.1944 0.0000 1.0000
vt 0.2500 0.0000 1.0000
vt 0.2500 0.1579 1.0000
vt 0.3056 0.1579 1.0000
vt 0.3056 0.0000 1.0000
vt 0.3611 0.0000 1.0000
vt 0.3611 0.1579 1.0000
vt 0.4167 0.1579 1.0000
vt 0.4167 0.0000 1.0000
vt 0.4722 0.0000 1.0000
vt 0.4722 0.1579 1.0000
vt 0.5278 0.1579 1.0000
vt 0.5278 0.0000 1.0000
vt 0.5833 0.0000 1.0000
vt 0.5833 0.1579 1.0000
vt 0.6389 0.1579 1.0000
vt 0.6389 0.0000 1.0000
vt 0.6944 0.0000 1.0000
vt 0.6944 0.1579 1.0000
# 82 texture coords

g Cylinder001
usemtl wire_115115115
s 2
f 41/9/18 42/10/18 43/11/18 44/12/18 
s 4
f 45/12/19 46/9/19 47/10/19 48/11/19 
s 8
f 49/13/20 50/14/21 43/10/21 42/11/21 
f 51/12/22 52/9/22 53/15/23 54/16/24 
s 16
f 55/13/25 49/14/25 42/10/25 41/11/25 
f 56/16/26 54/15/26 49/14/25 55/13/25 
f 57/12/27 51/9/28 54/15/26 56/16/26 
s 32
f 58/13/29 55/14/29 41/10/29 44/11/29 
f 59/16/30 56/15/30 55/14/29 58/13/29 
f 60/12/31 57/9/31 56/15/30 59/16/30 
s 64
f 50/13/32 58/14/32 44/10/32 43/11/32 
f 53/16/33 59/15/33 58/14/32 50/13/32 
f 52/12/34 60/9/35 59/15/33 53/16/33 
s off
f 61/11/21 62/10/21 52/10/21 51/11/21 
f 63/12/25 61/11/25 51/11/25 57/12/25 
f 64/9/29 63/12/29 57/12/29 60/9/29 
f 62/10/32 64/9/32 60/9/32 52/10/32 
f 48/11/36 47/10/36 62/10/36 61/11/36 
f 45/12/37 48/11/37 61/11/37 63/12/37 
f 46/9/38 45/12/38 63/12/38 64/9/38 
f 47/10/39 46/9/39 64/9/39 62/10/39 
s 8
f 65/17/21 66/18/21 67/19/20 49/13/20 
f 65/17/21 49/13/20 54/16/24 68/20/20 
f 69/21/20 68/20/20 54/16/24 70/22/40 
f 71/23/21 70/22/40 54/16/24 53/15/23 
f 72/24/20 71/23/21 53/15/23 73/25/41 
f 74/26/20 73/25/41 53/15/23 50/14/21 
f 49/13/20 67/19/20 75/27/20 76/28/20 
f 49/13/20 76/28/20 77/29/21 50/14/21 
f 50/14/21 77/29/21 78/30/20 79/31/20 
f 50/14/21 79/31/20 80/32/21 81/33/40 
f 50/14/21 81/33/40 82/34/20 74/26/20 
s 1
f 83/35/40 84/36/40 85/37/40 86/38/40 
f 85/37/40 87/39/40 88/40/40 89/41/40 
f 88/40/40 90/42/40 89/41/40 
f 89/41/40 91/43/40 92/44/40 93/45/40 
f 92/44/40 94/46/40 93/45/40 
f 85/37/40 89/41/40 93/45/40 86/38/40 
f 93/45/40 95/47/40 96/48/40 86/38/40 
f 96/48/40 97/49/40 86/38/40 
f 86/38/40 98/50/40 99/51/40 83/35/40 
f 100/52/40 83/35/40 99/51/40 
s 2
f 84/53/42 68/54/42 69/55/43 85/56/43 
f 83/57/44 65/58/44 68/54/42 84/53/42 
f 87/59/45 70/60/45 71/61/46 88/62/46 
f 85/56/43 69/55/43 70/60/45 87/59/45 
f 90/63/47 72/64/47 73/65/48 89/66/48 
f 88/62/46 71/61/46 72/67/47 90/68/47 
f 91/69/49 74/70/49 82/71/50 92/72/50 
f 89/66/48 73/65/48 74/70/49 91/69/49 
f 94/73/51 81/74/51 80/75/52 93/76/52 
f 92/72/50 82/71/50 81/74/51 94/73/51 
f 95/77/53 79/78/53 78/79/54 96/80/54 
f 93/76/52 80/75/52 79/78/53 95/77/53 
f 97/81/55 77/82/55 76/83/56 86/84/56 
f 96/80/54 78/79/54 77/82/55 97/81/55 
f 98/85/57 75/86/57 67/87/58 99/88/58 
f 86/84/56 76/83/56 75/86/57 98/85/57 
f 100/89/59 66/90/59 65/58/44 83/57/44 
f 99/88/58 67/87/58 66/90/59 100/89/59 
# 56 polygons - 4 triangles

