# This file uses centimeters as units for non-parametric coordinates.

mtllib fench.mtl
g default
v -9.725158 -0.698693 10.190390
v -9.725158 137.872003 10.190396
v -9.725158 -0.698692 -9.543901
v -9.725158 137.872004 -9.543901
v 10.009129 -0.698691 10.190390
v 10.009137 137.872005 10.190386
v 10.009129 -0.698690 -9.543907
v 10.009137 137.872006 -9.543907
v 256.706367 137.872028 -9.543925
v 256.706284 -0.698692 -9.543925
v 256.706367 137.872027 10.190366
v 256.706284 -0.698693 10.190370
v 236.972058 137.872026 -9.543925
v 236.971975 -0.698694 -9.543925
v 236.972058 137.872025 10.190366
v 236.971975 -0.698689 10.190370
v 5.037861 76.644957 2.858361
v 5.037859 95.331532 2.858362
v 5.037861 76.644958 -4.330393
v 5.037859 95.331532 -4.330392
v 241.603677 76.644949 2.858343
v 241.603676 95.331523 2.858344
v 241.603677 76.644949 -4.330417
v 241.603676 95.331524 -4.330416
v 5.037859 31.135169 2.858365
v 5.037857 49.821741 2.858366
v 5.037859 31.135169 -4.330395
v 5.037857 49.821741 -4.330394
v 241.603681 31.135172 2.858341
v 241.603680 49.821732 2.858342
v 241.603681 31.135172 -4.330419
v 241.603680 49.821732 -4.330418
v 12.613239 -0.033823 10.279650
v 12.613228 121.524597 10.279645
v 12.613228 -0.033823 3.010451
v 12.613228 121.524597 3.010450
v 37.611707 -0.033823 10.279650
v 37.611705 121.524599 10.279645
v 37.611707 -0.033823 3.010451
v 37.611705 121.524599 3.010450
v 25.112474 133.879807 3.010451
v 25.112474 133.879806 10.279646
v 45.111246 -0.033823 10.279650
v 45.111245 121.524600 10.279645
v 45.111246 -0.033823 3.010445
v 45.111245 121.524600 3.010450
v 70.109724 -0.033823 10.279640
v 70.109725 121.524602 10.279645
v 70.109724 -0.033823 3.010445
v 70.109725 121.524602 3.010444
v 57.610494 133.879810 3.010445
v 57.610494 133.879809 10.279646
v 77.609263 -0.033823 10.279640
v 77.609264 121.524603 10.279645
v 77.609263 -0.033823 3.010445
v 77.609264 121.524603 3.010444
v 102.607693 -0.033823 10.279640
v 102.607778 121.524605 10.279645
v 102.607693 -0.033823 3.010445
v 102.607778 121.524605 3.010444
v 90.108511 133.879812 3.010445
v 90.108511 133.879812 10.279646
v 110.107292 -0.033823 10.279640
v 110.107281 121.524606 10.279645
v 110.107292 -0.033823 3.010439
v 110.107281 121.524606 3.010444
v 135.105787 -0.033823 10.279640
v 135.105776 121.524608 10.279635
v 135.105787 -0.033823 3.010439
v 135.105776 121.524608 3.010438
v 122.606480 133.879815 3.010439
v 122.606480 133.879815 10.279636
v 142.605290 -0.033823 10.279640
v 142.605280 121.524608 10.279635
v 142.605290 -0.033823 3.010439
v 142.605280 121.524609 3.010438
v 167.603786 -0.033823 10.279640
v 167.603775 121.524611 10.279635
v 167.603786 -0.033823 3.010439
v 167.603775 121.524611 3.010438
v 155.104574 133.879818 3.010439
v 155.104574 133.879818 10.279636
v 175.103277 -0.033823 10.279640
v 175.103374 121.524611 10.279635
v 175.103277 -0.033823 3.010439
v 175.103374 121.524612 3.010438
v 200.101785 -0.033823 10.279630
v 200.101774 121.524614 10.279635
v 200.101785 -0.033823 3.010433
v 200.101774 121.524614 3.010432
v 187.602573 133.879821 3.010433
v 187.602573 133.879821 10.279636
v 207.601383 -0.033823 10.279630
v 207.601373 121.524614 10.279635
v 207.601383 -0.033823 3.010433
v 207.601373 121.524615 3.010432
v 232.599784 -0.033823 10.279630
v 232.599773 121.524616 10.279635
v 232.599784 -0.033823 3.010433
v 232.599773 121.524617 3.010432
v 220.100560 133.879824 3.010433
v 220.100560 133.879824 10.279636
vt 0.720652 0.762430
vt 0.720652 0.762430
vt 0.720652 0.762430
vt 0.720652 0.762430
vt 0.720652 0.762430
vt 0.720652 0.762430
vt 0.720652 0.762430
vt 0.720652 0.762430
vt 0.720652 0.762430
vt 0.720652 0.762430
vt 0.720652 0.762430
vt 0.720652 0.762430
vt 0.720652 0.762430
vt 0.720652 0.762430
vt 0.720652 0.762430
vt 0.720652 0.762430
vt 0.720652 0.762430
vt 0.720652 0.762430
vt 0.720652 0.762430
vt 0.720652 0.762430
vt 0.720652 0.762430
vt 0.720652 0.762430
vt 0.720652 0.762430
vt 0.720652 0.762430
vt 0.720652 0.762430
vt 0.720652 0.762430
vt 0.720652 0.762430
vt 0.720652 0.762430
vt 0.720652 0.762430
vt 0.720652 0.762430
vt 0.720652 0.762430
vt 0.720652 0.762430
vt 0.720652 0.762430
vt 0.720652 0.762430
vt 0.720652 0.762430
vt 0.720652 0.762430
vt 0.720652 0.762430
vt 0.720652 0.762430
vt 0.720652 0.762430
vt 0.720652 0.762430
vt 0.720652 0.762430
vt 0.720652 0.762430
vt 0.720652 0.762430
vt 0.720652 0.762430
vt 0.720652 0.762430
vt 0.720652 0.762430
vt 0.720652 0.762430
vt 0.720652 0.762430
vt 0.815448 0.748762
vt 0.815448 0.748762
vt 0.815448 0.748762
vt 0.815448 0.748762
vt 0.815448 0.748762
vt 0.815448 0.748762
vt 0.815448 0.748762
vt 0.815448 0.748762
vt 0.815448 0.748762
vt 0.815448 0.748762
vt 0.815448 0.748762
vt 0.815448 0.748762
vt 0.815448 0.748762
vt 0.815448 0.748762
vt 0.815448 0.748762
vt 0.815448 0.748762
vt 0.815448 0.748762
vt 0.815448 0.748762
vt 0.815448 0.748762
vt 0.815448 0.748762
vt 0.815448 0.748762
vt 0.815448 0.748762
vt 0.815448 0.748762
vt 0.815448 0.748762
vt 0.815448 0.748762
vt 0.815448 0.748762
vt 0.815448 0.748762
vt 0.815448 0.748762
vt 0.815448 0.748762
vt 0.815448 0.748762
vt 0.815448 0.748762
vt 0.815448 0.748762
vt 0.815448 0.748762
vt 0.815448 0.748762
vt 0.815448 0.748762
vt 0.815448 0.748762
vt 0.815448 0.748762
vt 0.815448 0.748762
vt 0.815448 0.748762
vt 0.815448 0.748762
vt 0.815448 0.748762
vt 0.815448 0.748762
vt 0.815448 0.748762
vt 0.815448 0.748762
vt 0.815448 0.748762
vt 0.815448 0.748762
vt 0.815448 0.748762
vt 0.815448 0.748762
vt 0.815448 0.748762
vt 0.815448 0.748762
vt 0.815448 0.748762
vt 0.815448 0.748762
vt 0.815448 0.748762
vt 0.815448 0.748762
vt 0.815448 0.748762
vt 0.815448 0.748762
vt 0.815448 0.748762
vt 0.815448 0.748762
vt 0.815448 0.748762
vt 0.815448 0.748762
vt 0.815448 0.748762
vt 0.815448 0.748762
vt 0.815448 0.748762
vt 0.815448 0.748762
vt 0.815448 0.748762
vt 0.815448 0.748762
vt 0.815448 0.748762
vt 0.815448 0.748762
vt 0.815448 0.748762
vt 0.815448 0.748762
vt 0.815448 0.748762
vt 0.815448 0.748762
vt 0.815448 0.748762
vt 0.815448 0.748762
vt 0.815448 0.748762
vt 0.815448 0.748762
vt 0.815448 0.748762
vt 0.815448 0.748762
vt 0.815448 0.748762
vt 0.815448 0.748762
vt 0.815448 0.748762
vt 0.815448 0.748762
vt 0.815448 0.748762
vt 0.815448 0.748762
vt 0.815448 0.748762
vt 0.815448 0.748762
vt 0.815448 0.748762
vt 0.815448 0.748762
vt 0.815448 0.748762
vt 0.815448 0.748762
vt 0.815448 0.748762
vt 0.815448 0.748762
vt 0.815448 0.748762
vt 0.815448 0.748762
vt 0.815448 0.748762
vt 0.815448 0.748762
vt 0.815448 0.748762
vt 0.815448 0.748762
vt 0.815448 0.748762
vt 0.815448 0.748762
vt 0.815448 0.748762
vt 0.815448 0.748762
vt 0.815448 0.748762
vt 0.815448 0.748762
vt 0.815448 0.748762
vt 0.815448 0.748762
vt 0.815448 0.748762
vt 0.815448 0.748762
vt 0.815448 0.748762
vt 0.815448 0.748762
vt 0.815448 0.748762
vt 0.815448 0.748762
vt 0.815448 0.748762
vt 0.815448 0.748762
vt 0.815448 0.748762
vt 0.815448 0.748762
vt 0.815448 0.748762
vt 0.815448 0.748762
vt 0.815448 0.748762
vt 0.815448 0.748762
vt 0.815448 0.748762
vt 0.815448 0.748762
vt 0.815448 0.748762
vt 0.815448 0.748762
vt 0.815448 0.748762
vt 0.815448 0.748762
vt 0.815448 0.748762
vt 0.815448 0.748762
vt 0.815448 0.748762
vt 0.815448 0.748762
vt 0.815448 0.748762
vt 0.815448 0.748762
vt 0.815448 0.748762
vt 0.815448 0.748762
vt 0.815448 0.748762
vt 0.815448 0.748762
vt 0.815448 0.748762
vt 0.815448 0.748762
vt 0.815448 0.748762
vt 0.815448 0.748762
vt 0.815448 0.748762
vt 0.815448 0.748762
vt 0.815448 0.748762
vt 0.815448 0.748762
vt 0.815448 0.748762
vt 0.815448 0.748762
vt 0.815448 0.748762
vt 0.815448 0.748762
vt 0.815448 0.748762
vt 0.815448 0.748762
vt 0.815448 0.748762
vt 0.815448 0.748762
vt 0.815448 0.748762
vt 0.815448 0.748762
vt 0.815448 0.748762
vt 0.815448 0.748762
vt 0.815448 0.748762
vt 0.815448 0.748762
vt 0.815448 0.748762
vt 0.815448 0.748762
vt 0.815448 0.748762
vt 0.815448 0.748762
vt 0.815448 0.748762
vt 0.815448 0.748762
vt 0.815448 0.748762
vt 0.815448 0.748762
vt 0.815448 0.748762
vt 0.815448 0.748762
vt 0.815448 0.748762
vt 0.815448 0.748762
vt 0.815448 0.748762
vt 0.815448 0.748762
vt 0.815448 0.748762
vt 0.815448 0.748762
vt 0.815448 0.748762
vt 0.815448 0.748762
vt 0.815448 0.748762
vt 0.815448 0.748762
vt 0.815448 0.748762
vt 0.815448 0.748762
vt 0.815448 0.748762
vt 0.815448 0.748762
vt 0.815448 0.748762
vt 0.815448 0.748762
vt 0.815448 0.748762
vt 0.815448 0.748762
vt 0.815448 0.748762
vt 0.815448 0.748762
vt 0.815448 0.748762
vt 0.815448 0.748762
vt 0.815448 0.748762
vt 0.815448 0.748762
vt 0.815448 0.748762
vt 0.815448 0.748762
vt 0.815448 0.748762
vt 0.815448 0.748762
vt 0.815448 0.748762
vt 0.815448 0.748762
vt 0.815448 0.748762
vt 0.815448 0.748762
vt 0.815448 0.748762
vt 0.815448 0.748762
vt 0.815448 0.748762
vt 0.815448 0.748762
vt 0.815448 0.748762
vt 0.815448 0.748762
vt 0.815448 0.748762
vt 0.815448 0.748762
vt 0.815448 0.748762
vt 0.815448 0.748762
vt 0.815448 0.748762
vt 0.815448 0.748762
vt 0.815448 0.748762
vt 0.815448 0.748762
vt 0.815448 0.748762
vt 0.815448 0.748762
vt 0.815448 0.748762
vt 0.815448 0.748762
vt 0.815448 0.748762
vt 0.815448 0.748762
vt 0.815448 0.748762
vt 0.815448 0.748762
vt 0.815448 0.748762
vt 0.815448 0.748762
vt 0.815448 0.748762
vt 0.815448 0.748762
vt 0.815448 0.748762
vt 0.815448 0.748762
vt 0.815448 0.748762
vt 0.815448 0.748762
vt 0.815448 0.748762
vt 0.815448 0.748762
vt 0.815448 0.748762
vt 0.815448 0.748762
vt 0.815448 0.748762
vt 0.815448 0.748762
vt 0.815448 0.748762
vt 0.815448 0.748762
vt 0.815448 0.748762
vt 0.815448 0.748762
vt 0.815448 0.748762
vt 0.815448 0.748762
vt 0.815448 0.748762
vt 0.815448 0.748762
vt 0.815448 0.748762
vt 0.815448 0.748762
vt 0.815448 0.748762
vt 0.815448 0.748762
vt 0.815448 0.748762
vt 0.815448 0.748762
vt 0.815448 0.748762
vt 0.815448 0.748762
vt 0.815448 0.748762
vt 0.815448 0.748762
vt 0.815448 0.748762
vt 0.815448 0.748762
vt 0.815448 0.748762
vt 0.815448 0.748762
vt 0.815448 0.748762
vt 0.815448 0.748762
vt 0.815448 0.748762
vt 0.815448 0.748762
vt 0.815448 0.748762
vt 0.815448 0.748762
vt 0.815448 0.748762
vt 0.815448 0.748762
vt 0.815448 0.748762
vt 0.815448 0.748762
vt 0.815448 0.748762
vt 0.815448 0.748762
vt 0.815448 0.748762
vt 0.815448 0.748762
vt 0.815448 0.748762
vt 0.815448 0.748762
vt 0.815448 0.748762
vt 0.815448 0.748762
vt 0.815448 0.748762
vt 0.815448 0.748762
vt 0.815448 0.748762
vt 0.815448 0.748762
vt 0.815448 0.748762
vt 0.815448 0.748762
vt 0.815448 0.748762
vt 0.815448 0.748762
vt 0.815448 0.748762
vt 0.815448 0.748762
vn -1.000000 -0.000000 0.000000
vn -1.000000 -0.000000 0.000000
vn -1.000000 -0.000000 0.000000
vn -1.000000 -0.000000 0.000000
vn -0.000000 0.000000 -1.000000
vn -0.000000 0.000000 -1.000000
vn -0.000000 0.000000 -1.000000
vn -0.000000 0.000000 -1.000000
vn 1.000000 0.000000 -0.000000
vn 1.000000 0.000000 -0.000000
vn 1.000000 0.000000 -0.000000
vn 1.000000 0.000000 -0.000000
vn 0.000000 -0.000000 1.000000
vn 0.000000 -0.000000 1.000000
vn 0.000000 -0.000000 1.000000
vn 0.000000 -0.000000 1.000000
vn 0.000000 -1.000000 -0.000000
vn 0.000000 -1.000000 -0.000000
vn 0.000000 -1.000000 -0.000000
vn 0.000000 -1.000000 -0.000000
vn -0.000000 1.000000 0.000000
vn -0.000000 1.000000 0.000000
vn -0.000000 1.000000 0.000000
vn -0.000000 1.000000 0.000000
vn 0.000000 -1.000000 -0.000000
vn 0.000000 -1.000000 -0.000000
vn 0.000000 -1.000000 -0.000000
vn 0.000000 -1.000000 -0.000000
vn -0.000000 0.000000 -1.000000
vn -0.000000 0.000000 -1.000000
vn -0.000000 0.000000 -1.000000
vn -0.000000 0.000000 -1.000000
vn -1.000000 -0.000000 0.000000
vn -1.000000 -0.000000 0.000000
vn -1.000000 -0.000000 0.000000
vn -1.000000 -0.000000 0.000000
vn -0.000000 1.000000 0.000000
vn -0.000000 1.000000 0.000000
vn -0.000000 1.000000 0.000000
vn -0.000000 1.000000 0.000000
vn 0.000000 -0.000000 1.000000
vn 0.000000 -0.000000 1.000000
vn 0.000000 -0.000000 1.000000
vn 0.000000 -0.000000 1.000000
vn 1.000000 0.000000 -0.000000
vn 1.000000 0.000000 -0.000000
vn 1.000000 0.000000 -0.000000
vn 1.000000 0.000000 -0.000000
vn -1.000000 -0.000000 0.000000
vn -1.000000 -0.000000 0.000000
vn -1.000000 -0.000000 0.000000
vn -1.000000 -0.000000 0.000000
vn -0.000000 0.000000 -1.000000
vn -0.000000 0.000000 -1.000000
vn -0.000000 0.000000 -1.000000
vn -0.000000 0.000000 -1.000000
vn 1.000000 0.000000 -0.000000
vn 1.000000 0.000000 -0.000000
vn 1.000000 0.000000 -0.000000
vn 1.000000 0.000000 -0.000000
vn 0.000000 -0.000000 1.000000
vn 0.000000 -0.000000 1.000000
vn 0.000000 -0.000000 1.000000
vn 0.000000 -0.000000 1.000000
vn 0.000000 -1.000000 -0.000000
vn 0.000000 -1.000000 -0.000000
vn 0.000000 -1.000000 -0.000000
vn 0.000000 -1.000000 -0.000000
vn -0.000000 1.000000 0.000000
vn -0.000000 1.000000 0.000000
vn -0.000000 1.000000 0.000000
vn -0.000000 1.000000 0.000000
vn -1.000000 -0.000000 0.000000
vn -1.000000 -0.000000 0.000000
vn -1.000000 -0.000000 0.000000
vn -1.000000 -0.000000 0.000000
vn -0.000000 0.000000 -1.000000
vn -0.000000 0.000000 -1.000000
vn -0.000000 0.000000 -1.000000
vn -0.000000 0.000000 -1.000000
vn 1.000000 -0.000001 -0.000000
vn 1.000000 -0.000001 -0.000000
vn 1.000000 -0.000001 -0.000000
vn 1.000000 -0.000001 -0.000000
vn 0.000000 -0.000000 1.000000
vn 0.000000 -0.000000 1.000000
vn 0.000000 -0.000000 1.000000
vn 0.000000 -0.000000 1.000000
vn 0.000000 -1.000000 -0.000000
vn 0.000000 -1.000000 -0.000000
vn 0.000000 -1.000000 -0.000000
vn 0.000000 -1.000000 -0.000000
vn -0.000000 1.000000 0.000000
vn -0.000000 1.000000 0.000000
vn -0.000000 1.000000 0.000000
vn -0.000000 1.000000 0.000000
vn -1.000000 -0.000000 0.000000
vn -1.000000 -0.000000 0.000000
vn -1.000000 -0.000000 0.000000
vn -1.000000 -0.000000 0.000000
vn 1.000000 -0.000000 -0.000000
vn 1.000000 -0.000000 -0.000000
vn 1.000000 -0.000000 -0.000000
vn 1.000000 -0.000000 -0.000000
vn 0.000000 -1.000000 -0.000000
vn 0.000000 -1.000000 -0.000000
vn 0.000000 -1.000000 -0.000000
vn 0.000000 -1.000000 -0.000000
vn -0.702997 0.711193 -0.000000
vn -0.702997 0.711193 -0.000000
vn -0.702997 0.711193 -0.000000
vn -0.702997 0.711193 -0.000000
vn 0.702997 0.711193 0.000000
vn 0.702997 0.711193 0.000000
vn 0.702997 0.711193 0.000000
vn 0.702997 0.711193 0.000000
vn -0.000000 0.000000 -1.000000
vn -0.000000 0.000000 -1.000000
vn -0.000000 0.000000 -1.000000
vn -0.000000 0.000000 -1.000000
vn -0.000000 0.000000 -1.000000
vn -0.000000 0.000000 -1.000000
vn -0.000000 0.000000 -1.000000
vn 0.000000 -0.000000 1.000000
vn 0.000000 -0.000000 1.000000
vn 0.000000 -0.000000 1.000000
vn 0.000000 -0.000000 1.000000
vn 0.000000 -0.000000 1.000000
vn 0.000000 -0.000000 1.000000
vn 0.000000 -0.000000 1.000000
vn -1.000000 -0.000000 0.000000
vn -1.000000 -0.000000 0.000000
vn -1.000000 -0.000000 0.000000
vn -1.000000 -0.000000 0.000000
vn 1.000000 0.000000 -0.000000
vn 1.000000 0.000000 -0.000000
vn 1.000000 0.000000 -0.000000
vn 1.000000 0.000000 -0.000000
vn 0.000000 -1.000000 -0.000000
vn 0.000000 -1.000000 -0.000000
vn 0.000000 -1.000000 -0.000000
vn 0.000000 -1.000000 -0.000000
vn -0.702996 0.711193 0.000000
vn -0.702996 0.711193 0.000000
vn -0.702996 0.711193 0.000000
vn -0.702996 0.711193 0.000000
vn 0.702997 0.711193 0.000000
vn 0.702997 0.711193 0.000000
vn 0.702997 0.711193 0.000000
vn 0.702997 0.711193 0.000000
vn -0.000000 0.000000 -1.000000
vn -0.000000 0.000000 -1.000000
vn -0.000000 0.000000 -1.000000
vn -0.000000 0.000000 -1.000000
vn -0.000000 0.000000 -1.000000
vn -0.000000 0.000000 -1.000000
vn -0.000000 0.000000 -1.000000
vn 0.000000 -0.000000 1.000000
vn 0.000000 -0.000000 1.000000
vn 0.000000 -0.000000 1.000000
vn 0.000000 -0.000000 1.000000
vn 0.000000 -0.000000 1.000000
vn 0.000000 -0.000000 1.000000
vn 0.000000 -0.000000 1.000000
vn -1.000000 -0.000000 0.000000
vn -1.000000 -0.000000 0.000000
vn -1.000000 -0.000000 0.000000
vn -1.000000 -0.000000 0.000000
vn 1.000000 0.000000 -0.000000
vn 1.000000 0.000000 -0.000000
vn 1.000000 0.000000 -0.000000
vn 1.000000 0.000000 -0.000000
vn 0.000000 -1.000000 -0.000000
vn 0.000000 -1.000000 -0.000000
vn 0.000000 -1.000000 -0.000000
vn 0.000000 -1.000000 -0.000000
vn -0.702996 0.711194 0.000000
vn -0.702996 0.711194 0.000000
vn -0.702996 0.711194 0.000000
vn -0.702996 0.711194 0.000000
vn 0.702997 0.711193 0.000000
vn 0.702997 0.711193 0.000000
vn 0.702997 0.711193 0.000000
vn 0.702997 0.711193 0.000000
vn -0.000000 0.000000 -1.000000
vn -0.000000 0.000000 -1.000000
vn -0.000000 0.000000 -1.000000
vn -0.000000 0.000000 -1.000000
vn -0.000000 0.000000 -1.000000
vn -0.000000 0.000000 -1.000000
vn -0.000000 0.000000 -1.000000
vn 0.000000 -0.000000 1.000000
vn 0.000000 -0.000000 1.000000
vn 0.000000 -0.000000 1.000000
vn 0.000000 -0.000000 1.000000
vn 0.000000 -0.000000 1.000000
vn 0.000000 -0.000000 1.000000
vn 0.000000 -0.000000 1.000000
vn -1.000000 -0.000000 0.000000
vn -1.000000 -0.000000 0.000000
vn -1.000000 -0.000000 0.000000
vn -1.000000 -0.000000 0.000000
vn 1.000000 0.000000 -0.000000
vn 1.000000 0.000000 -0.000000
vn 1.000000 0.000000 -0.000000
vn 1.000000 0.000000 -0.000000
vn 0.000000 -1.000000 -0.000000
vn 0.000000 -1.000000 -0.000000
vn 0.000000 -1.000000 -0.000000
vn 0.000000 -1.000000 -0.000000
vn -0.702996 0.711193 0.000000
vn -0.702996 0.711193 0.000000
vn -0.702996 0.711193 0.000000
vn -0.702996 0.711193 0.000000
vn 0.702997 0.711193 0.000000
vn 0.702997 0.711193 0.000000
vn 0.702997 0.711193 0.000000
vn 0.702997 0.711193 0.000000
vn -0.000000 0.000000 -1.000000
vn -0.000000 0.000000 -1.000000
vn -0.000000 0.000000 -1.000000
vn -0.000000 0.000000 -1.000000
vn -0.000000 0.000000 -1.000000
vn -0.000000 0.000000 -1.000000
vn -0.000000 0.000000 -1.000000
vn 0.000000 -0.000000 1.000000
vn 0.000000 -0.000000 1.000000
vn 0.000000 -0.000000 1.000000
vn 0.000000 -0.000000 1.000000
vn 0.000000 -0.000000 1.000000
vn 0.000000 -0.000000 1.000000
vn 0.000000 -0.000000 1.000000
vn -1.000000 -0.000000 0.000000
vn -1.000000 -0.000000 0.000000
vn -1.000000 -0.000000 0.000000
vn -1.000000 -0.000000 0.000000
vn 1.000000 0.000000 -0.000000
vn 1.000000 0.000000 -0.000000
vn 1.000000 0.000000 -0.000000
vn 1.000000 0.000000 -0.000000
vn 0.000000 -1.000000 -0.000000
vn 0.000000 -1.000000 -0.000000
vn 0.000000 -1.000000 -0.000000
vn 0.000000 -1.000000 -0.000000
vn -0.702996 0.711193 0.000000
vn -0.702996 0.711193 0.000000
vn -0.702996 0.711193 0.000000
vn -0.702996 0.711193 0.000000
vn 0.702997 0.711193 0.000000
vn 0.702997 0.711193 0.000000
vn 0.702997 0.711193 0.000000
vn 0.702997 0.711193 0.000000
vn -0.000000 0.000000 -1.000000
vn -0.000000 0.000000 -1.000000
vn -0.000000 0.000000 -1.000000
vn -0.000000 0.000000 -1.000000
vn -0.000000 0.000000 -1.000000
vn -0.000000 0.000000 -1.000000
vn -0.000000 0.000000 -1.000000
vn 0.000000 -0.000000 1.000000
vn 0.000000 -0.000000 1.000000
vn 0.000000 -0.000000 1.000000
vn 0.000000 -0.000000 1.000000
vn 0.000000 -0.000000 1.000000
vn 0.000000 -0.000000 1.000000
vn 0.000000 -0.000000 1.000000
vn -1.000000 0.000000 0.000000
vn -1.000000 0.000000 0.000000
vn -1.000000 0.000000 0.000000
vn -1.000000 0.000000 0.000000
vn 1.000000 0.000000 -0.000000
vn 1.000000 0.000000 -0.000000
vn 1.000000 0.000000 -0.000000
vn 1.000000 0.000000 -0.000000
vn 0.000000 -1.000000 -0.000000
vn 0.000000 -1.000000 -0.000000
vn 0.000000 -1.000000 -0.000000
vn 0.000000 -1.000000 -0.000000
vn -0.702998 0.711192 0.000000
vn -0.702998 0.711192 0.000000
vn -0.702998 0.711192 0.000000
vn -0.702998 0.711192 0.000000
vn 0.702997 0.711193 0.000000
vn 0.702997 0.711193 0.000000
vn 0.702997 0.711193 0.000000
vn 0.702997 0.711193 0.000000
vn -0.000000 0.000000 -1.000000
vn -0.000000 0.000000 -1.000000
vn -0.000000 0.000000 -1.000000
vn -0.000000 0.000000 -1.000000
vn -0.000000 0.000000 -1.000000
vn -0.000000 0.000000 -1.000000
vn -0.000000 0.000000 -1.000000
vn 0.000000 -0.000000 1.000000
vn 0.000000 -0.000000 1.000000
vn 0.000000 -0.000000 1.000000
vn 0.000000 -0.000000 1.000000
vn 0.000000 -0.000000 1.000000
vn 0.000000 -0.000000 1.000000
vn 0.000000 -0.000000 1.000000
vn -1.000000 -0.000000 -0.000000
vn -1.000000 -0.000000 -0.000000
vn -1.000000 -0.000000 -0.000000
vn -1.000000 -0.000000 -0.000000
vn 1.000000 0.000000 -0.000000
vn 1.000000 0.000000 -0.000000
vn 1.000000 0.000000 -0.000000
vn 1.000000 0.000000 -0.000000
vn 0.000000 -1.000000 -0.000000
vn 0.000000 -1.000000 -0.000000
vn 0.000000 -1.000000 -0.000000
vn 0.000000 -1.000000 -0.000000
vn -0.702996 0.711193 0.000000
vn -0.702996 0.711193 0.000000
vn -0.702996 0.711193 0.000000
vn -0.702996 0.711193 0.000000
vn 0.702997 0.711193 0.000000
vn 0.702997 0.711193 0.000000
vn 0.702997 0.711193 0.000000
vn 0.702997 0.711193 0.000000
vn -0.000000 0.000000 -1.000000
vn -0.000000 0.000000 -1.000000
vn -0.000000 0.000000 -1.000000
vn -0.000000 0.000000 -1.000000
vn -0.000000 0.000000 -1.000000
vn -0.000000 0.000000 -1.000000
vn -0.000000 0.000000 -1.000000
vn 0.000000 -0.000000 1.000000
vn 0.000000 -0.000000 1.000000
vn 0.000000 -0.000000 1.000000
vn 0.000000 -0.000000 1.000000
vn 0.000000 -0.000000 1.000000
vn 0.000000 -0.000000 1.000000
vn 0.000000 -0.000000 1.000000
s off
g Fence_Type2_03_mesh
usemtl Fence_Type2_03_meshSG
f 2/1/1 4/2/2 3/3/3 1/4/4
f 4/5/5 8/6/6 7/7/7 3/8/8
f 8/9/9 6/10/10 5/11/11 7/12/12
f 6/13/13 2/14/14 1/15/15 5/16/16
f 1/17/17 3/18/18 7/19/19 5/20/20
f 6/21/21 8/22/22 4/23/23 2/24/24
f 16/25/25 14/26/26 10/27/27 12/28/28
f 13/29/29 9/30/30 10/31/31 14/32/32
f 15/33/33 13/34/34 14/35/35 16/36/36
f 11/37/37 9/38/38 13/39/39 15/40/40
f 11/41/41 15/42/42 16/43/43 12/44/44
f 9/45/45 11/46/46 12/47/47 10/48/48
f 18/49/49 20/50/50 19/51/51 17/52/52
f 20/53/53 24/54/54 23/55/55 19/56/56
f 24/57/57 22/58/58 21/59/59 23/60/60
f 22/61/61 18/62/62 17/63/63 21/64/64
f 17/65/65 19/66/66 23/67/67 21/68/68
f 22/69/69 24/70/70 20/71/71 18/72/72
f 26/73/73 28/74/74 27/75/75 25/76/76
f 28/77/77 32/78/78 31/79/79 27/80/80
f 32/81/81 30/82/82 29/83/83 31/84/84
f 30/85/85 26/86/86 25/87/87 29/88/88
f 25/89/89 27/90/90 31/91/91 29/92/92
f 30/93/93 32/94/94 28/95/95 26/96/96
f 34/97/97 36/98/98 35/99/99 33/100/100
f 40/101/101 38/102/102 37/103/103 39/104/104
f 33/105/105 35/106/106 39/107/107 37/108/108
f 42/109/109 41/110/110 36/111/111 34/112/112
f 38/113/113 40/114/114 41/115/115 42/116/116
f 36/117/117 41/118/118 35/119/119
f 41/120/120 40/121/121 39/122/122 35/123/123
f 42/124/124 34/125/125 33/126/126
f 38/127/127 42/128/128 33/129/129 37/130/130
f 44/131/131 46/132/132 45/133/133 43/134/134
f 50/135/135 48/136/136 47/137/137 49/138/138
f 43/139/139 45/140/140 49/141/141 47/142/142
f 52/143/143 51/144/144 46/145/145 44/146/146
f 48/147/147 50/148/148 51/149/149 52/150/150
f 46/151/151 51/152/152 45/153/153
f 51/154/154 50/155/155 49/156/156 45/157/157
f 52/158/158 44/159/159 43/160/160
f 48/161/161 52/162/162 43/163/163 47/164/164
f 54/165/165 56/166/166 55/167/167 53/168/168
f 60/169/169 58/170/170 57/171/171 59/172/172
f 53/173/173 55/174/174 59/175/175 57/176/176
f 62/177/177 61/178/178 56/179/179 54/180/180
f 58/181/181 60/182/182 61/183/183 62/184/184
f 56/185/185 61/186/186 55/187/187
f 61/188/188 60/189/189 59/190/190 55/191/191
f 62/192/192 54/193/193 53/194/194
f 58/195/195 62/196/196 53/197/197 57/198/198
f 64/199/199 66/200/200 65/201/201 63/202/202
f 70/203/203 68/204/204 67/205/205 69/206/206
f 63/207/207 65/208/208 69/209/209 67/210/210
f 72/211/211 71/212/212 66/213/213 64/214/214
f 68/215/215 70/216/216 71/217/217 72/218/218
f 66/219/219 71/220/220 65/221/221
f 71/222/222 70/223/223 69/224/224 65/225/225
f 72/226/226 64/227/227 63/228/228
f 68/229/229 72/230/230 63/231/231 67/232/232
f 74/233/233 76/234/234 75/235/235 73/236/236
f 80/237/237 78/238/238 77/239/239 79/240/240
f 73/241/241 75/242/242 79/243/243 77/244/244
f 82/245/245 81/246/246 76/247/247 74/248/248
f 78/249/249 80/250/250 81/251/251 82/252/252
f 76/253/253 81/254/254 75/255/255
f 81/256/256 80/257/257 79/258/258 75/259/259
f 82/260/260 74/261/261 73/262/262
f 78/263/263 82/264/264 73/265/265 77/266/266
f 84/267/267 86/268/268 85/269/269 83/270/270
f 90/271/271 88/272/272 87/273/273 89/274/274
f 83/275/275 85/276/276 89/277/277 87/278/278
f 92/279/279 91/280/280 86/281/281 84/282/282
f 88/283/283 90/284/284 91/285/285 92/286/286
f 86/287/287 91/288/288 85/289/289
f 91/290/290 90/291/291 89/292/292 85/293/293
f 92/294/294 84/295/295 83/296/296
f 88/297/297 92/298/298 83/299/299 87/300/300
f 94/301/301 96/302/302 95/303/303 93/304/304
f 100/305/305 98/306/306 97/307/307 99/308/308
f 93/309/309 95/310/310 99/311/311 97/312/312
f 102/313/313 101/314/314 96/315/315 94/316/316
f 98/317/317 100/318/318 101/319/319 102/320/320
f 96/321/321 101/322/322 95/323/323
f 101/324/324 100/325/325 99/326/326 95/327/327
f 102/328/328 94/329/329 93/330/330
f 98/331/331 102/332/332 93/333/333 97/334/334
