# 3ds Max Wavefront OBJ Exporter v0.97b - (c)2007 guruware
# File Created: 27.10.2016 16:56:19

mtllib pumkin.mtl

#
# object Line001
#

v  -14.1928 48.9123 34.3241
v  2.4966 41.9993 34.3241
v  -14.1928 41.9993 17.6347
v  9.4096 25.3099 34.3241
v  2.4966 25.3099 17.6347
v  -14.1928 25.3099 10.7217
v  -30.8822 41.9993 34.3241
v  -30.8822 25.3099 17.6347
v  -14.1928 41.9993 51.0136
v  -30.8822 25.3099 51.0136
v  -14.1928 25.3099 57.9266
v  2.4966 25.3099 51.0136
v  -14.1928 1.7075 34.3241
v  -14.1928 8.6205 17.6347
v  2.4966 8.6205 34.3241
v  -30.8822 8.6205 34.3241
v  -33.8405 15.7623 34.3241
v  -33.7586 15.6613 34.2275
v  -30.8822 14.6295 28.3151
v  -29.4407 13.9384 27.5647
v  -30.7268 20.7073 22.0819
v  -30.8822 20.3473 22.5973
v  -14.1928 8.6205 51.0136
v  -23.1433 31.9865 28.1238
v  -19.1166 26.3617 25.0478
v  -19.1166 26.3617 31.1997
v  -32.1604 26.3617 28.1238
v  -36.0091 26.3617 31.0637
v  -36.0654 26.3617 31.1997
v  -35.0279 27.9808 30.3143
v  -32.5684 31.4165 27.8121
v  -33.5172 26.3617 25.0478
v  -34.1589 26.3617 26.5971
v  -37.7952 25.3099 34.3241
v  -22.9161 31.9865 41.0862
v  -18.8894 26.3617 38.0102
v  -18.8894 26.3617 44.1622
v  -32.1604 26.3617 41.0862
v  -33.9822 26.3617 42.4779
v  -33.2845 26.3617 44.1622
v  -32.2530 31.8570 41.1570
v  -32.8117 31.0767 40.5887
v  -35.8327 26.3617 38.0103
v  -35.6687 26.3617 38.4062
v  -36.6017 24.9457 36.8414
v  -37.6404 24.9362 34.3241
v  -37.2933 24.9394 35.1653
v  -36.3191 24.9366 34.4211
v  -37.3525 24.9336 33.6317
v  -36.6745 24.9275 32.0008
v  -33.1507 24.9275 32.0008
v  -33.1507 24.9457 36.8414
v  -35.9500 21.0253 34.1539
v  -35.9948 20.9633 34.3241
v  -35.8775 21.1288 34.7728
v  -33.8661 17.1875 35.6874
v  -33.8455 16.0405 34.5903
v  -31.6511 14.0061 37.8534
v  -30.8822 15.8150 41.5186
v  -31.3708 16.3752 40.8994
v  -35.2244 19.1035 34.3241
v  -35.2431 19.5403 34.7158
v  -26.6465 13.8030 43.7424
v  -25.7666 17.3905 48.2098
v  -30.8822 17.7840 43.4876
v  -29.8279 16.8490 43.6070
v  -35.1003 18.9454 34.1825
v  -33.4534 16.8490 32.3029
v  -33.7618 20.2335 29.6630
v  -31.3506 17.7290 26.3463
v  -32.4721 14.0738 32.7090
v  -32.3319 16.3075 30.1369
v  -31.9315 20.0304 43.2009
v  -32.7166 16.7813 38.0565
v  -35.2961 20.7750 35.8227
v  -23.1351 16.3752 40.8994
v  -23.1351 13.8030 43.7424
v  -23.1351 13.9384 27.5647
v  -23.1351 17.7290 26.3463
v  -23.1351 20.7073 22.0819
v  -23.1351 16.3075 30.1369
v  -23.1351 14.0738 32.7090
v  -23.1351 16.8490 32.3029
v  -23.1351 20.2335 29.6630
v  -23.1351 17.1875 35.6874
v  -23.1351 14.0061 37.8534
v  -23.1351 16.7813 38.0565
v  -23.1351 20.7750 35.8227
v  -23.1351 16.8490 43.6070
v  -23.1351 17.3905 48.2098
v  -23.1351 20.0304 43.2008
# 91 vertices

vn 0.3574 0.8629 -0.3574
vn 0.8629 0.3574 -0.3574
vn 0.5774 0.5774 -0.5774
vn 0.3574 0.3574 -0.8629
vn -0.3574 0.8629 -0.3574
vn -0.3574 0.3574 -0.8629
vn -0.5774 0.5774 -0.5774
vn -0.3574 0.8629 0.3574
vn -0.5773 0.5774 0.5774
vn -0.3574 0.3574 0.8629
vn 0.3574 0.8629 0.3574
vn 0.3574 0.3574 0.8629
vn 0.5774 0.5774 0.5774
vn 0.8629 0.3574 0.3574
vn 0.3574 -0.8629 -0.3574
vn 0.3574 -0.3574 -0.8629
vn 0.5773 -0.5774 -0.5774
vn 0.8629 -0.3574 -0.3574
vn -0.3574 -0.8629 -0.3574
vn -0.8629 -0.3574 -0.3574
vn -0.5774 -0.5774 -0.5774
vn -0.5773 -0.5774 -0.5774
vn -0.5774 -0.5773 -0.5773
vn -0.3574 -0.3574 -0.8629
vn -0.3574 -0.8629 0.3574
vn -0.3574 -0.3574 0.8629
vn 0.3574 -0.8629 0.3574
vn 0.8629 -0.3574 0.3574
vn 0.5774 -0.5774 0.5774
vn 0.3574 -0.3574 0.8629
vn -0.8131 -0.5821 0.0000
vn 0.0000 1.0000 -0.0000
vn 0.0000 1.0000 0.0000
vn 0.0632 -0.6167 -0.7846
vn -0.0000 -0.4798 -0.8774
vn 0.0000 -0.4798 0.8774
vn -0.8629 0.3574 -0.3574
vn -0.8628 0.3574 -0.3574
vn 0.0143 -0.5953 0.8033
vn -0.0000 -0.4798 0.8774
vn -0.8629 0.3574 0.3574
vn -0.8629 -0.3574 0.3574
vn -0.0000 -1.0000 0.0038
vn 0.0000 0.4831 0.8756
vn -0.8131 0.5821 -0.0022
vn -0.0000 0.4765 -0.8792
vn -0.5774 -0.5774 0.5774
vn -0.5774 -0.5773 0.5774
vn 0.0000 0.7415 0.6709
vn -0.0000 0.7415 0.6709
vn -1.0000 0.0000 0.0000
vn 0.0000 0.6912 -0.7226
vn 0.0000 0.7355 -0.6775
vn 0.0000 0.6294 0.7771
vn -0.0000 -0.8198 -0.5726
vn 0.0000 0.7797 -0.6261
vn -0.0000 -0.1266 -0.9919
vn 0.0000 -0.1266 -0.9919
vn -0.0000 -0.9932 0.1168
vn 0.0000 0.7550 0.6557
vn -0.0000 -0.7980 0.6026
vn -0.0000 -0.6150 -0.7885
vn 0.0000 0.7894 -0.6139
vn 0.0000 0.5628 0.8266
vn -0.0000 -0.4882 -0.8728
vn -0.0000 -0.8455 0.5340
vn -0.0000 -0.6675 0.7446
# 67 vertex normals

vt 0.6250 1.0000 23.6024
vt 0.5000 0.7500 23.6024
vt 0.7500 0.7500 23.6024
vt 0.5000 0.5000 23.6024
vt 0.6250 0.5000 23.6024
vt 0.7500 0.5000 23.6024
vt 0.8750 1.0000 23.6024
vt 1.0000 0.7500 23.6024
vt 0.8750 0.5000 23.6024
vt 0.1250 1.0000 23.6024
vt 0.0000 0.7500 23.6024
vt 0.2500 0.7500 23.6024
vt 0.1250 0.5000 23.6024
vt 0.2500 0.5000 23.6024
vt 0.3750 1.0000 23.6024
vt 0.3750 0.5000 23.6024
vt 0.6250 0.0000 23.6024
vt 0.7500 0.2500 23.6024
vt 0.5000 0.2500 23.6024
vt 0.8750 0.0000 23.6024
vt 1.0000 0.2500 23.6024
vt 1.0000 0.3570 23.6024
vt 0.9993 0.3555 23.6024
vt 0.9550 0.3400 23.6024
vt 0.9386 0.3297 23.6024
vt 0.9071 0.4311 23.6024
vt 0.9122 0.4257 23.6024
vt 0.1250 0.0000 23.6024
vt 0.2500 0.2500 23.6024
vt 0.0000 0.2500 23.6024
vt 0.3750 0.0000 23.6024
vt 0.5000 1.0000 0.0000
vt 0.8455 0.0000 0.0000
vt -0.1545 0.0000 0.0000
vt 0.5000 0.5000 0.0000
vt 0.0221 0.9779 0.0000
vt 0.0151 1.0000 0.0000
vt 1.0000 1.0000 0.0000
vt 1.0000 0.0000 0.0000
vt 0.7460 0.2879 0.0000
vt 0.4337 0.8987 0.0000
vt 0.0151 0.0000 0.0000
vt 0.1439 0.2879 0.0000
vt 0.5507 0.8987 0.0000
vt 0.6685 0.0000 0.0000
vt 0.0000 0.0000 0.0000
vt 0.2518 0.2518 0.0000
vt 0.3315 0.0000 0.0000
vt 0.9512 0.5915 23.6024
vt 0.9700 0.5400 23.6024
vt 0.9305 0.5158 23.6024
vt 0.9766 0.5158 23.6024
vt 1.0000 0.5000 23.6024
vt 0.9421 0.5158 23.6024
vt 0.9756 0.5158 23.6024
vt 0.2738 0.7262 0.0000
vt 0.3604 1.0000 0.0000
vt 0.5080 0.9770 0.0000
vt 0.3941 0.8383 0.0000
vt 0.3604 0.0000 0.0000
vt 0.4885 0.9770 0.0000
vt 0.5809 0.8383 0.0000
vt 0.9560 0.0000 0.0000
vt 0.0644 0.0644 0.0000
vt 0.0440 0.0000 0.0000
vt 0.0469 0.5864 23.6024
vt 0.0512 0.5981 23.6024
vt 0.0000 0.5000 23.6024
vt 0.0276 0.5158 23.6024
vt 0.0737 0.5158 23.6024
vt 0.0306 0.5158 23.6024
vt 0.0611 0.5158 23.6024
vt 0.0189 0.4945 23.6024
vt 0.0000 0.4944 23.6024
vt 0.0063 0.4944 23.6024
vt 0.3369 0.6631 0.0000
vt 0.4439 1.0000 0.0000
vt 0.4439 0.0000 0.0000
vt 0.5582 0.8835 0.0000
vt 0.4611 0.8977 0.0000
vt 0.5481 0.8606 0.0000
vt 0.4237 0.8835 0.0000
vt 0.3463 0.3463 0.0000
vt 0.2915 0.5200 0.0000
vt 0.4303 0.8606 0.0000
vt 0.5446 0.0000 0.0000
vt 0.4554 0.0000 0.0000
vt 0.9948 0.4944 23.6024
vt 1.0000 0.4944 23.6024
vt 0.9826 0.4943 23.6024
vt 0.0102 0.3783 23.6024
vt 0.0020 0.3611 23.6024
vt 0.0264 0.3307 23.6024
vt 0.0539 0.3578 23.6024
vt 0.0492 0.3662 23.6024
vt 0.0000 0.4349 23.6024
vt 0.0000 0.4070 23.6024
vt 0.0029 0.4136 23.6024
vt 0.0034 0.4374 23.6024
vt 0.1023 0.3276 23.6024
vt 0.1423 0.3814 23.6024
vt 0.0686 0.3873 23.6024
vt 0.0774 0.3733 23.6024
vt 0.0000 0.3570 23.6024
vt 1.0000 0.4070 23.6024
vt 1.0000 0.4349 23.6024
vt 0.9987 0.4358 23.6024
vt 0.9989 0.4047 23.6024
vt 0.9849 0.3733 23.6024
vt 0.9651 0.4240 23.6024
vt 0.9402 0.3864 23.6024
vt 0.9879 0.3317 23.6024
vt 0.9686 0.3651 23.6024
vt 0.0665 0.4209 23.6024
vt 0.0280 0.3722 23.6024
vt 0.0112 0.4321 23.6024
vt -12.1023 -1.5436 28.0000
vt -12.1023 -1.5436 9.5653
vt -13.4883 -2.7976 10.6589
vt -18.4659 -7.3011 20.1400
vt -18.4659 -7.3011 28.0000
vt 17.7462 -6.9981 28.0000
vt 20.4735 1.4867 28.0000
vt 30.0189 8.1534 28.0000
vt 11.9886 -1.6951 28.0000
vt 6.2311 -6.6951 28.0000
vt 7.1402 -0.4830 28.0000
vt 13.0492 7.0928 28.0000
vt -0.4356 0.2746 28.0000
vt -5.2841 -6.8466 28.0000
vt -5.7386 -0.6345 28.0000
vt -0.7386 8.3049 28.0000
vt -18.1629 -0.4830 28.0000
vt -28.4659 0.7292 28.0000
vt -17.2538 6.6383 28.0000
vt 6.2311 -6.6951 7.1002
vt 2.8321 -3.1416 4.2204
vt 2.6159 -2.9155 4.0372
vt 2.0201 -2.2928 4.0260
vt -0.4356 0.2746 3.9797
vt 16.0665 -5.4510 10.6589
vt 11.9886 -1.6951 7.4140
vt 17.7462 -6.9981 13.8856
vt 30.0189 8.1534 11.0068
vt 28.8652 7.3476 10.6589
vt 20.4735 1.4867 9.6106
vt -28.4659 0.7292 22.1097
vt -17.8957 1.6098 10.6589
vt -17.2538 6.6383 8.3101
vt -18.1629 -0.4830 13.0188
vt 13.0492 7.0928 4.2132
vt 7.1402 -0.4830 4.9036
vt -5.2841 -6.8466 8.9377
vt -5.7386 -0.6345 6.5529
vt -0.7386 8.3049 0.7790
vt 2.9330 4.2096 1.2172
vt 1.7392 5.5412 0.8974
vt 2.6158 4.5634 0.9393
# 158 texture coords

g Line001
usemtl wire_087225143
s off
f 1/1/1 2/2/1 3/3/1 
f 2/2/2 4/4/2 5/5/2 
f 2/2/3 5/5/3 3/3/3 
f 3/3/4 5/5/4 6/6/4 
f 1/7/5 3/3/5 7/8/5 
f 3/3/6 6/6/6 8/9/6 
f 3/3/7 8/9/7 7/8/7 
f 1/10/8 7/11/8 9/12/8 
f 7/11/9 10/13/9 9/12/9 
f 9/12/10 10/13/10 11/14/10 
f 1/15/11 9/12/11 2/2/11 
f 9/12/12 11/14/12 12/16/12 
f 9/12/13 12/16/13 2/2/13 
f 2/2/14 12/16/14 4/4/14 
f 13/17/15 14/18/15 15/19/15 
f 14/18/16 6/6/16 5/5/16 
f 14/18/17 5/5/17 15/19/17 
f 15/19/18 5/5/18 4/4/18 
f 13/20/19 16/21/19 14/18/19 
f 16/21/20 17/22/20 18/23/20 
f 16/21/21 19/24/21 20/25/21 
f 21/26/22 22/27/22 8/9/22 
f 20/25/23 21/26/23 8/9/23 
f 20/25/21 8/9/21 14/18/21 
f 16/21/21 20/25/21 14/18/21 
f 14/18/24 8/9/24 6/6/24 
f 13/28/25 23/29/25 16/30/25 
f 23/29/26 11/14/26 10/13/26 
f 13/31/27 15/19/27 23/29/27 
f 15/19/28 4/4/28 12/16/28 
f 15/19/29 12/16/29 23/29/29 
f 23/29/30 12/16/30 11/14/30 
s 2
f 24/32/31 25/33/31 26/34/31 
s 8
f 27/35/32 28/36/33 29/37/33 
f 29/37/33 26/38/32 27/35/32 
f 26/38/32 25/39/32 27/35/32 
s 32
f 30/40/34 31/41/34 24/32/34 
s 4
f 26/39/35 29/42/35 30/43/35 
f 30/43/35 24/32/35 26/39/35 
s 16
f 24/32/36 31/44/36 32/45/36 
f 32/45/36 25/46/36 24/32/36 
s 8
f 33/47/32 28/36/33 27/35/32 
f 27/35/32 25/39/32 32/48/32 
f 32/48/32 33/47/32 27/35/32 
s off
f 31/49/37 30/50/37 7/8/37 
f 31/49/37 7/8/37 8/9/37 
f 32/51/37 31/49/37 8/9/37 
f 30/50/37 29/52/37 34/53/37 
f 34/53/37 7/8/37 30/50/37 
f 33/54/37 32/51/37 8/9/37 
f 28/55/37 33/54/37 8/9/37 
f 29/52/38 28/55/38 8/9/38 
f 29/52/37 8/9/37 34/53/37 
s 2
f 35/32/31 36/33/31 37/34/31 
s 8
f 38/35/33 39/56/33 40/57/33 
f 40/57/33 37/38/33 38/35/33 
f 37/38/33 36/39/33 38/35/33 
s 32
f 41/58/39 42/59/39 35/32/39 
s 4
f 40/60/35 41/61/35 35/32/35 
f 35/32/35 37/39/35 40/60/35 
s 16
f 42/62/36 43/63/36 36/46/36 
f 36/46/36 35/32/40 42/62/36 
s 8
f 44/64/32 39/56/33 38/35/33 
f 38/35/33 36/39/33 43/65/32 
f 43/65/32 44/64/32 38/35/33 
s off
f 42/66/41 41/67/41 7/11/41 
f 42/66/41 7/11/41 34/68/41 
f 34/68/41 43/69/41 42/66/41 
f 41/67/41 10/13/41 7/11/41 
f 41/67/41 40/70/41 10/13/41 
f 44/71/41 43/69/41 34/68/41 
f 39/72/41 44/71/41 34/68/41 
f 40/70/41 39/72/41 34/68/41 
f 40/70/41 34/68/41 10/13/41 
f 45/73/42 10/13/42 34/68/42 
f 34/68/42 46/74/42 47/75/42 
f 45/73/42 34/68/42 47/75/42 
s 8
f 48/35/43 49/76/43 50/77/43 
f 50/77/43 51/38/43 48/35/43 
f 51/38/43 52/39/43 48/35/43 
s 4
f 50/78/44 53/79/44 51/39/44 
s 2
f 54/80/45 55/81/45 52/33/45 
f 53/82/45 54/80/45 52/33/45 
f 53/82/45 52/33/45 51/34/45 
s 8
f 48/35/43 47/83/43 46/84/43 
f 46/84/43 49/76/43 48/35/43 
s 16
f 55/85/46 45/86/46 52/46/46 
s 8
f 48/35/43 52/39/43 45/87/43 
f 45/87/43 47/83/43 48/35/43 
s off
f 49/88/20 46/89/20 34/53/20 
f 50/90/20 49/88/20 34/53/20 
f 50/90/20 34/53/20 8/9/20 
f 56/91/42 57/92/42 16/30/42 
f 58/93/42 56/91/42 16/30/42 
f 58/93/42 16/30/42 59/94/42 
f 60/95/42 58/93/42 59/94/42 
f 54/96/42 61/97/42 62/98/42 
f 62/98/42 55/99/42 54/96/42 
f 63/100/47 59/94/47 16/30/47 
f 63/100/48 16/30/48 23/29/48 
f 64/101/48 63/100/48 23/29/48 
f 64/101/48 23/29/48 10/13/48 
f 64/101/47 10/13/47 65/102/47 
f 64/101/48 65/102/48 66/103/48 
f 17/104/42 16/30/42 57/92/42 
f 61/105/20 54/106/20 53/107/20 
f 53/107/20 67/108/20 61/105/20 
f 68/109/20 67/108/20 53/107/20 
f 69/110/20 68/109/20 53/107/20 
f 69/110/20 53/107/20 50/90/20 
f 8/9/20 22/27/20 70/111/20 
f 50/90/20 8/9/20 70/111/20 
f 69/110/20 50/90/20 70/111/20 
f 16/21/20 18/23/20 71/112/20 
f 19/24/20 16/21/20 71/112/20 
f 19/24/20 71/112/20 72/113/20 
f 73/114/42 65/102/42 10/13/42 
f 74/115/42 73/114/42 10/13/42 
f 74/115/42 10/13/42 45/73/42 
f 75/116/42 74/115/42 45/73/42 
f 75/116/42 45/73/42 55/99/42 
f 75/116/42 55/99/42 62/98/42 
s 4
f 76/117/49 60/118/49 59/119/49 
f 76/117/49 59/119/49 63/120/49 
f 76/117/49 63/120/49 77/121/50 
s 16
f 78/122/51 79/123/51 80/124/51 
f 81/125/51 82/126/51 83/127/51 
f 83/127/51 84/128/51 81/125/51 
f 85/129/51 86/130/51 87/131/51 
f 87/131/51 88/132/51 85/129/51 
f 79/123/51 78/122/51 81/125/51 
f 81/125/51 84/128/51 79/123/51 
f 89/133/51 76/117/51 77/121/51 
f 85/129/51 88/132/51 83/127/51 
f 83/127/51 82/126/51 85/129/51 
f 89/133/51 77/121/51 90/134/51 
f 89/133/51 91/135/51 87/131/51 
f 87/131/51 76/117/51 89/133/51 
f 76/117/51 87/131/51 86/130/51 
s 2
f 82/126/52 71/136/52 18/137/52 
f 85/129/52 82/126/52 18/137/52 
f 85/129/52 18/137/52 17/138/52 
f 85/129/52 17/138/52 57/139/52 
f 85/129/52 57/139/52 56/140/52 
f 19/141/53 72/142/53 81/125/53 
f 20/143/53 19/141/53 81/125/53 
f 20/143/53 81/125/53 78/122/53 
s 4
f 80/124/54 21/144/54 20/143/54 
f 20/143/54 78/122/54 80/124/54 
s 2
f 22/145/55 21/144/55 80/124/55 
f 22/145/55 80/124/55 79/123/55 
f 22/145/55 79/123/55 70/146/55 
s 1
f 77/121/56 63/120/56 64/147/56 
f 64/147/56 90/134/56 77/121/56 
s 2
f 65/148/57 73/149/57 91/135/57 
f 66/150/58 65/148/57 91/135/57 
f 66/150/58 91/135/57 89/133/57 
s 4
f 89/133/59 90/134/59 64/147/59 
f 64/147/59 66/150/59 89/133/59 
f 72/142/60 71/136/60 82/126/60 
f 82/126/60 81/125/60 72/142/60 
f 84/128/61 69/151/61 70/146/61 
f 70/146/61 79/123/61 84/128/61 
s 2
f 68/152/62 69/151/62 84/128/62 
f 84/128/62 83/127/62 68/152/62 
f 86/130/63 58/153/63 60/118/63 
f 60/118/63 76/117/63 86/130/63 
s 4
f 85/129/64 56/140/64 58/153/64 
f 58/153/64 86/130/64 85/129/64 
s 2
f 74/154/65 75/155/65 88/132/65 
f 88/132/65 87/131/65 74/154/65 
s 4
f 73/149/66 74/154/66 87/131/66 
f 87/131/66 91/135/66 73/149/66 
f 67/156/67 68/152/67 83/127/67 
f 67/156/67 83/127/67 88/132/67 
f 88/132/67 75/155/67 62/157/67 
f 67/156/67 88/132/67 62/157/67 
f 61/158/67 67/156/67 62/157/67 
# 0 polygons - 178 triangles

#
# object Line002
#

v  -13.7649 46.2078 32.7312
v  -13.7649 51.6623 33.0342
v  -9.7649 51.6623 33.0342
v  -9.7649 46.2078 32.7312
v  -13.7649 55.6993 35.9949
v  -9.7649 55.6993 35.9949
v  -13.7649 53.2196 39.4805
v  -9.7649 53.2196 39.4805
v  -13.7649 49.9957 35.6099
v  -9.7649 49.9957 35.6099
v  -13.7649 46.0563 35.4584
v  -9.7649 46.0563 35.4584
# 12 vertices

vn 0.0000 0.0555 -0.9985
vn 0.0000 0.5914 -0.8064
vn 0.0000 0.8148 0.5797
vn -0.0000 -0.7684 0.6400
vn -0.0000 -0.0384 0.9993
vn -0.0000 -0.9985 -0.0555
vn -1.0000 0.0000 -0.0000
vn 1.0000 -0.0000 0.0000
# 8 vertex normals

g Line002
usemtl wire_214228153
s 1
f 92//68 93//68 94//68 95//68 
s 4
f 93//69 96//69 97//69 94//69 
s 2
f 96//70 98//70 99//70 97//70 
s 4
f 98//71 100//71 101//71 99//71 
s 2
f 100//72 102//72 103//72 101//72 
s 4
f 102//73 92//73 95//73 103//73 
s 16
f 96//74 93//74 100//74 98//74 
f 92//74 102//74 100//74 93//74 
f 97//75 99//75 101//75 94//75 
f 95//75 94//75 101//75 103//75 
# 10 polygons

